# xmcd CD database file generated by Grip 3.2.0
# 
# Track frame offsets:
#       150
#       19660
#       39315
#       63552
#       89907
#       116310
#       149120
#       167980
#       186697
#       204472
#       223782
#       239945
#       264447
#       281632
# 
# Disc length: 3966 seconds
# 
# Revision: 3
# Processed by: cddbd v1.5.1PL2 Copyright (c) Steve Scherf et al.
# Submitted via: Grip 3.2.0
# 
DISCID=e90f7c0e
DTITLE=Diana King - The Best Of Diana King
DYEAR=2002
DGENRE=Pop
TTITLE0=Shy Guy
TTITLE1=Love Triangle
TTITLE2=Ain't Nobody
TTITLE3=Hey Jude
TTITLE4=Sukiyaki
TTITLE5=Bob Marley Medley
TTITLE6=L-L-Lies
TTITLE7=Find My Way Back
TTITLE8=Supa-Lova-Bwoy
TTITLE9=Tenderness
TTITLE10=I Say A Little Prayer
TTITLE11=Do You Really Want To Hurt Me
TTITLE12=Stir It Up
TTITLE13=I Say A Little Prayer (Radio Mix)
EXTD=
EXTT0=
EXTT1=
EXTT2=
EXTT3=
EXTT4=
EXTT5=
EXTT6=
EXTT7=
EXTT8=
EXTT9=
EXTT10=
EXTT11=
EXTT12=
EXTT13=
PLAYORDER=
